<svg width="6" height="7" viewBox="0 0 6 7" fill="none" xmlns="http://www.w3.org/2000/svg">
<path d="M5.7907 0H1.04651C0.769242 0.000904613 0.503592 0.109651 0.307532 0.302507C0.111472 0.495364 0.00091964 0.756673 0 1.02941V6.79412C0 6.84872 0.0220514 6.90109 0.0613032 6.9397C0.100555 6.97831 0.153792 7 0.209302 7H5.23256C5.28807 7 5.34131 6.97831 5.38056 6.9397C5.41981 6.90109 5.44186 6.84872 5.44186 6.79412C5.44186 6.73951 5.41981 6.68715 5.38056 6.64854C5.34131 6.60993 5.28807 6.58824 5.23256 6.58824H0.418605V6.51961C0.419521 6.35608 0.485969 6.1995 0.603527 6.08386C0.721084 5.96822 0.880263 5.90286 1.04651 5.90196H5.7907C5.84621 5.90196 5.89945 5.88027 5.9387 5.84166C5.97795 5.80305 6 5.75068 6 5.69608V0.205882C6 0.151279 5.97795 0.098912 5.9387 0.0603015C5.89945 0.0216911 5.84621 0 5.7907 0ZM5.5814 5.4902H1.04651C0.819955 5.48945 0.599392 5.56176 0.418605 5.69608V1.02941C0.419521 0.865879 0.485969 0.709302 0.603527 0.593665C0.721084 0.478028 0.880263 0.412666 1.04651 0.411765H5.5814V5.4902Z" fill="#45516B"/>
</svg>
